<svg width="109" height="100" viewBox="0 0 109 100" fill="none" xmlns="http://www.w3.org/2000/svg">
<g id="Placegolder logo">
<path id="Vector" d="M33.2781 98.6476L0.363193 41.4718C-0.670061 39.6775 0.624304 37.4395 2.69454 37.4395H34.054C36.1205 37.4395 37.4186 39.6775 36.3853 41.468C35.9041 42.3036 35.0164 42.8183 34.054 42.8183H12.0013C9.93105 42.8183 8.63668 45.0564 9.66994 46.8506L33.2781 87.8637C34.3114 89.6617 36.9076 89.6617 37.9408 87.8637L65.4172 40.1364C65.8983 39.3008 66.7861 38.7898 67.7485 38.7898C69.8187 38.7898 71.1131 41.0279 70.0798 42.8221L37.9408 98.6514C36.9076 100.449 34.3114 100.449 33.2781 98.6514V98.6476Z" fill="#F3F4F6"/>
<path id="Vector_2" d="M75.0362 1.39601L107.791 58.2921C108.858 60.146 107.518 62.4624 105.377 62.4624H74.1783C72.1118 62.4624 70.8137 60.2243 71.847 58.4339C72.3281 57.5983 73.2159 57.0835 74.1783 57.0835H96.0706C98.2117 57.0835 99.5508 54.7671 98.484 52.9132L75.0362 12.1799C73.9657 10.3186 71.2837 10.3223 70.2131 12.1799L42.8189 59.7693C42.3377 60.6048 41.4499 61.1158 40.4875 61.1158C38.4173 61.1158 37.1229 58.8778 38.1562 57.0835L70.2131 1.39601C71.2837 -0.465337 73.9657 -0.465337 75.0362 1.39601Z" fill="#F3F4F6"/>
</g>
</svg>
