<svg width="35" height="10" viewBox="0 0 35 10" fill="none" xmlns="http://www.w3.org/2000/svg">
<path d="M5.632 3.972C5.48 3.972 5.324 3.972 5.164 3.972C5.004 3.964 4.844 3.956 4.684 3.948C4.588 3.948 4.524 3.94 4.492 3.924C4.46 3.9 4.444 3.876 4.444 3.852C4.444 3.82 4.456 3.792 4.48 3.768C4.504 3.744 4.52 3.728 4.528 3.72L4.516 3.684C4.548 3.692 4.568 3.704 4.576 3.72C4.592 3.728 4.604 3.732 4.612 3.732L4.624 3.72H4.636C4.668 3.704 4.712 3.696 4.768 3.696C4.808 3.696 4.844 3.7 4.876 3.708C4.908 3.708 4.94 3.708 4.972 3.708C5.044 3.708 5.116 3.704 5.188 3.696C5.268 3.688 5.348 3.68 5.428 3.672C5.444 3.672 5.492 3.664 5.572 3.648C5.596 3.64 5.616 3.636 5.632 3.636C5.656 3.628 5.672 3.616 5.68 3.6H5.8C5.84 3.6 5.876 3.6 5.908 3.6C5.948 3.592 5.972 3.576 5.98 3.552C6.1 3.552 6.216 3.54 6.328 3.516C6.448 3.484 6.568 3.46 6.688 3.444C6.768 3.428 6.84 3.404 6.904 3.372C6.976 3.332 7.056 3.308 7.144 3.3L7.528 3.156C7.592 3.132 7.64 3.104 7.672 3.072C7.712 3.04 7.752 3.008 7.792 2.976C7.808 2.96 7.824 2.948 7.84 2.94C7.864 2.924 7.888 2.912 7.912 2.904C8.072 2.824 8.2 2.712 8.296 2.568C8.392 2.424 8.464 2.28 8.512 2.136C8.56 1.984 8.584 1.872 8.584 1.8C8.584 1.552 8.488 1.36 8.296 1.224C8.112 1.088 7.88 0.988 7.6 0.924C7.328 0.86 7.048 0.82 6.76 0.804C6.472 0.788 6.232 0.78 6.04 0.78C5.96 0.78 5.88 0.788 5.8 0.804C5.728 0.82 5.652 0.836 5.572 0.852C5.452 0.876 5.328 0.888 5.2 0.888C5.08 0.88 4.96 0.884 4.84 0.9C4.328 1.004 3.816 1.16 3.304 1.368C2.8 1.568 2.348 1.82 1.948 2.124C1.852 2.196 1.74 2.288 1.612 2.4C1.484 2.504 1.376 2.616 1.288 2.736C1.2 2.856 1.16 2.976 1.168 3.096C1.168 3.12 1.188 3.156 1.228 3.204C1.268 3.252 1.288 3.292 1.288 3.324C1.288 3.364 1.256 3.384 1.192 3.384C1.112 3.344 1.048 3.26 1 3.132C0.96 2.996 0.94 2.896 0.94 2.832C0.916 2.6 0.948 2.372 1.036 2.148C1.132 1.916 1.292 1.76 1.516 1.68C1.58 1.656 1.644 1.64 1.708 1.632C1.78 1.616 1.844 1.6 1.9 1.584C1.988 1.552 2.076 1.504 2.164 1.44C2.26 1.368 2.348 1.304 2.428 1.248C2.492 1.24 2.552 1.224 2.608 1.2C2.664 1.168 2.72 1.144 2.776 1.128C2.856 1.096 2.988 1.052 3.172 0.996C3.356 0.932 3.54 0.876 3.724 0.828C3.908 0.772 4.036 0.744 4.108 0.744C4.172 0.704 4.244 0.68 4.324 0.672C4.404 0.656 4.484 0.648 4.564 0.648C4.604 0.624 4.672 0.604 4.768 0.588C4.864 0.564 4.936 0.556 4.984 0.564C5.016 0.556 5.088 0.548 5.2 0.54C5.312 0.532 5.436 0.524 5.572 0.516C5.708 0.5 5.824 0.488 5.92 0.48C6.024 0.472 6.076 0.468 6.076 0.468C6.284 0.468 6.496 0.472 6.712 0.48C6.936 0.48 7.152 0.508 7.36 0.564C7.608 0.62 7.856 0.716 8.104 0.852C8.352 0.98 8.564 1.144 8.74 1.344C8.916 1.544 9.016 1.772 9.04 2.028C9.048 2.156 9.036 2.28 9.004 2.4C8.972 2.512 8.924 2.62 8.86 2.724C8.684 3.02 8.428 3.252 8.092 3.42C7.756 3.588 7.412 3.716 7.06 3.804C6.98 3.82 6.896 3.84 6.808 3.864C6.72 3.88 6.632 3.892 6.544 3.9C6.392 3.908 6.236 3.924 6.076 3.948C5.924 3.964 5.776 3.972 5.632 3.972ZM3.988 6.348C3.868 6.348 3.732 6.308 3.58 6.228C3.428 6.148 3.296 6.048 3.184 5.928C3.072 5.8 3.008 5.68 2.992 5.568C2.976 5.36 3.016 5.148 3.112 4.932C3.208 4.708 3.308 4.512 3.412 4.344C3.516 4.168 3.564 4.048 3.556 3.984C3.572 3.968 3.596 3.948 3.628 3.924C3.668 3.892 3.68 3.868 3.664 3.852C3.88 3.5 4.104 3.164 4.336 2.844C4.36 2.812 4.38 2.78 4.396 2.748C4.412 2.708 4.432 2.672 4.456 2.64C4.512 2.568 4.572 2.5 4.636 2.436C4.7 2.364 4.76 2.296 4.816 2.232C4.904 2.12 4.988 2.008 5.068 1.896C5.148 1.776 5.228 1.664 5.308 1.56C5.348 1.512 5.408 1.448 5.488 1.368C5.576 1.28 5.62 1.204 5.62 1.14C5.612 1.124 5.596 1.104 5.572 1.08L5.56 1.056C5.528 1.032 5.512 1 5.512 0.96L5.548 0.924C5.596 0.932 5.688 0.956 5.824 0.996C5.968 1.036 6.1 1.092 6.22 1.164C6.34 1.236 6.4 1.324 6.4 1.428C6.4 1.508 6.356 1.592 6.268 1.68C6.188 1.76 6.096 1.84 5.992 1.92C5.896 1.992 5.816 2.06 5.752 2.124C5.56 2.324 5.34 2.576 5.092 2.88C4.844 3.176 4.604 3.496 4.372 3.84C4.14 4.176 3.952 4.516 3.808 4.86C3.664 5.204 3.604 5.528 3.628 5.832C3.636 5.896 3.656 5.964 3.688 6.036C3.72 6.108 3.776 6.144 3.856 6.144L4.324 5.856C4.412 5.792 4.492 5.732 4.564 5.676C4.644 5.62 4.684 5.572 4.684 5.532H4.792C4.76 5.62 4.724 5.688 4.684 5.736C4.644 5.776 4.6 5.832 4.552 5.904C4.48 6 4.4 6.096 4.312 6.192C4.232 6.296 4.124 6.348 3.988 6.348ZM7.9105 6.252C7.8545 6.252 7.7945 6.236 7.7305 6.204C7.6665 6.172 7.6225 6.128 7.5985 6.072L7.6105 6.012C7.6585 5.764 7.7305 5.524 7.8265 5.292C7.9225 5.06 8.0105 4.828 8.0905 4.596C8.1545 4.42 8.2265 4.204 8.3065 3.948C8.3865 3.692 8.4265 3.464 8.4265 3.264C8.4265 3.24 8.4265 3.216 8.4265 3.192C8.4265 3.16 8.4225 3.132 8.4145 3.108C8.3585 3.108 8.3065 3.116 8.2585 3.132C8.2105 3.14 8.1585 3.144 8.1025 3.144H8.0905C8.0505 3.144 8.0305 3.12 8.0305 3.072C8.0305 3.048 8.0465 3.02 8.0785 2.988C8.1105 2.956 8.1585 2.94 8.2225 2.94C8.2465 2.948 8.3145 2.952 8.4265 2.952C8.4905 2.952 8.5785 2.956 8.6905 2.964C8.8025 2.964 8.9065 2.976 9.0025 3C9.1065 3.024 9.1665 3.076 9.1825 3.156C9.1905 3.204 9.1665 3.296 9.1105 3.432C9.0625 3.56 9.0065 3.7 8.9425 3.852C8.8705 4.004 8.8025 4.152 8.7385 4.296C8.7145 4.36 8.6905 4.424 8.6665 4.488C8.6425 4.544 8.6305 4.592 8.6305 4.632V4.644L8.6545 4.608C8.7025 4.536 8.7505 4.468 8.7985 4.404C8.8545 4.34 8.8985 4.28 8.9305 4.224C8.9705 4.176 9.0305 4.104 9.1105 4.008C9.1985 3.904 9.2865 3.796 9.3745 3.684C9.4705 3.572 9.5625 3.46 9.6505 3.348C9.7465 3.236 9.8305 3.152 9.9025 3.096C9.9185 3.08 9.9345 3.06 9.9505 3.036C9.9745 3.012 9.9985 2.996 10.0225 2.988C10.0465 2.98 10.0785 2.976 10.1185 2.976C10.1665 2.968 10.2345 2.964 10.3225 2.964C10.3465 2.964 10.3705 2.968 10.3945 2.976C10.4185 2.976 10.4385 2.976 10.4545 2.976C10.4865 2.976 10.5545 3 10.6585 3.048C10.7625 3.088 10.8665 3.136 10.9705 3.192C11.0745 3.248 11.1265 3.296 11.1265 3.336C11.1345 3.416 11.1065 3.476 11.0425 3.516C10.9865 3.548 10.9385 3.588 10.8985 3.636C10.8425 3.708 10.7865 3.788 10.7305 3.876C10.6825 3.956 10.6425 4.04 10.6105 4.128L10.5865 4.2C10.5545 4.232 10.5265 4.248 10.5025 4.248C10.4545 4.248 10.4385 4.22 10.4545 4.164C10.4545 4.084 10.4625 4.012 10.4785 3.948C10.4945 3.876 10.5065 3.812 10.5145 3.756C10.5305 3.692 10.5385 3.632 10.5385 3.576C10.5465 3.512 10.5465 3.444 10.5385 3.372C10.5385 3.348 10.5305 3.336 10.5145 3.336C10.4425 3.336 10.3745 3.368 10.3105 3.432C10.2465 3.496 10.1945 3.552 10.1545 3.6L10.0825 3.648C10.0425 3.704 9.9745 3.768 9.8785 3.84L9.6505 4.008C9.5945 4.048 9.5145 4.128 9.4105 4.248C9.3065 4.36 9.2265 4.448 9.1705 4.512C9.1705 4.52 9.1425 4.524 9.0865 4.524H9.0745L9.0625 4.536V4.56C9.0785 4.584 9.0705 4.612 9.0385 4.644C8.9905 4.708 8.9065 4.816 8.7865 4.968C8.6665 5.12 8.5505 5.272 8.4385 5.424C8.3265 5.568 8.2625 5.672 8.2465 5.736C8.2145 5.824 8.1865 5.904 8.1625 5.976C8.1465 6.048 8.1425 6.136 8.1505 6.24C8.0945 6.232 8.0545 6.228 8.0305 6.228C8.0145 6.236 8.0025 6.24 7.9945 6.24C7.9705 6.248 7.9425 6.252 7.9105 6.252ZM11.273 6.3C11.193 6.3 11.125 6.288 11.069 6.264C11.021 6.248 10.977 6.232 10.937 6.216C10.913 6.2 10.885 6.18 10.853 6.156C10.829 6.132 10.801 6.12 10.769 6.12C10.761 6.104 10.745 6.084 10.721 6.06L10.673 6.024C10.601 5.968 10.553 5.9 10.529 5.82C10.505 5.74 10.493 5.648 10.493 5.544C10.493 5.408 10.525 5.284 10.589 5.172C10.653 5.06 10.705 4.94 10.745 4.812C10.761 4.772 10.769 4.732 10.769 4.692C10.769 4.652 10.773 4.612 10.781 4.572C10.797 4.516 10.821 4.464 10.853 4.416C10.885 4.368 10.917 4.32 10.949 4.272C11.133 3.952 11.353 3.696 11.609 3.504C11.865 3.304 12.173 3.136 12.533 3C12.573 2.984 12.641 2.968 12.737 2.952C12.841 2.936 12.913 2.928 12.953 2.928C13.017 2.928 13.077 2.94 13.133 2.964C13.189 2.98 13.245 2.996 13.301 3.012C13.317 3.02 13.333 3.028 13.349 3.036C13.373 3.036 13.401 3.036 13.433 3.036L13.409 3.072C13.481 3.104 13.537 3.148 13.577 3.204C13.625 3.26 13.677 3.312 13.733 3.36L13.841 3.456C13.873 3.488 13.893 3.532 13.901 3.588C13.917 3.636 13.925 3.676 13.925 3.708C13.941 3.82 13.933 3.928 13.901 4.032C13.877 4.128 13.845 4.22 13.805 4.308C13.757 4.388 13.705 4.472 13.649 4.56C13.593 4.64 13.533 4.72 13.469 4.8C13.413 4.88 13.357 4.96 13.301 5.04C13.245 5.12 13.181 5.196 13.109 5.268C13.093 5.284 13.053 5.324 12.989 5.388C12.925 5.444 12.861 5.504 12.797 5.568C12.741 5.632 12.709 5.672 12.701 5.688C12.629 5.712 12.569 5.748 12.521 5.796L12.449 5.868C12.305 6.012 12.121 6.12 11.897 6.192C11.673 6.264 11.465 6.3 11.273 6.3ZM11.333 6.072C11.341 6.064 11.353 6.06 11.369 6.06L11.477 6.024C11.517 6.008 11.553 5.996 11.585 5.988C11.625 5.98 11.649 5.972 11.657 5.964C11.689 5.948 11.753 5.908 11.849 5.844C11.953 5.78 12.049 5.712 12.137 5.64C12.225 5.568 12.265 5.516 12.257 5.484C12.313 5.46 12.381 5.396 12.461 5.292C12.549 5.188 12.629 5.076 12.701 4.956C12.781 4.836 12.833 4.752 12.857 4.704C12.873 4.664 12.889 4.628 12.905 4.596C12.921 4.564 12.945 4.532 12.977 4.5C12.977 4.46 12.985 4.424 13.001 4.392C13.025 4.36 13.037 4.332 13.037 4.308C13.053 4.292 13.061 4.268 13.061 4.236C13.069 4.196 13.077 4.168 13.085 4.152C13.101 4.088 13.113 4.048 13.121 4.032L13.109 4.02C13.117 4.004 13.121 3.988 13.121 3.972C13.129 3.948 13.137 3.932 13.145 3.924V3.888C13.145 3.848 13.149 3.812 13.157 3.78C13.165 3.74 13.165 3.7 13.157 3.66C13.173 3.628 13.181 3.6 13.181 3.576C13.181 3.552 13.177 3.528 13.169 3.504C13.169 3.48 13.165 3.456 13.157 3.432L13.169 3.42C13.161 3.348 13.137 3.288 13.097 3.24C13.057 3.192 13.005 3.168 12.941 3.168C12.741 3.168 12.565 3.22 12.413 3.324C12.261 3.428 12.113 3.544 11.969 3.672C11.913 3.712 11.861 3.752 11.813 3.792C11.773 3.832 11.733 3.88 11.693 3.936C11.693 3.944 11.689 3.952 11.681 3.96C11.697 3.944 11.721 3.932 11.753 3.924C11.825 3.868 11.917 3.84 12.029 3.84C12.069 3.84 12.149 3.876 12.269 3.948C12.389 4.02 12.449 4.088 12.449 4.152V4.212C12.393 4.188 12.361 4.172 12.353 4.164L12.305 4.14C12.273 4.124 12.237 4.116 12.197 4.116C12.069 4.116 11.933 4.176 11.789 4.296C11.653 4.416 11.541 4.532 11.453 4.644C11.397 4.708 11.345 4.772 11.297 4.836C11.249 4.892 11.229 4.972 11.237 5.076C11.277 5.1 11.305 5.144 11.321 5.208C11.297 5.216 11.273 5.22 11.249 5.22C11.209 5.22 11.169 5.2 11.129 5.16C11.105 5.192 11.085 5.236 11.069 5.292C11.053 5.348 11.037 5.396 11.021 5.436L10.997 5.472C10.997 5.504 10.993 5.536 10.985 5.568C10.985 5.6 10.989 5.632 10.997 5.664C11.005 5.784 11.033 5.884 11.081 5.964C11.129 6.036 11.213 6.072 11.333 6.072ZM14.3567 9.084C14.3167 9.084 14.2767 9.072 14.2367 9.048C14.1167 9.04 14.0087 8.984 13.9127 8.88C13.8087 8.784 13.7287 8.672 13.6727 8.544C13.6087 8.416 13.5727 8.312 13.5647 8.232C13.5567 8.16 13.5607 8.088 13.5767 8.016C13.5847 7.944 13.5927 7.872 13.6007 7.8C13.6407 7.76 13.6647 7.708 13.6727 7.644C13.6727 7.588 13.6767 7.532 13.6847 7.476C13.7247 7.324 13.7487 7.236 13.7567 7.212C13.7647 7.188 13.7807 7.16 13.8047 7.128C13.8207 7.104 13.8527 7.02 13.9007 6.876L13.9127 6.852C13.9127 6.836 13.9207 6.82 13.9367 6.804L13.9247 6.768C13.9647 6.72 13.9927 6.668 14.0087 6.612C14.0247 6.556 14.0447 6.5 14.0687 6.444C14.1087 6.356 14.1487 6.268 14.1887 6.18C14.2367 6.1 14.2847 6.02 14.3327 5.94C14.3967 5.836 14.4567 5.736 14.5127 5.64C14.5687 5.536 14.6287 5.432 14.6927 5.328C14.7247 5.28 14.7567 5.236 14.7887 5.196C14.8207 5.148 14.8487 5.1 14.8727 5.052C14.9367 4.908 15.0167 4.744 15.1127 4.56C15.2087 4.376 15.3047 4.216 15.4007 4.08L15.3887 4.056L15.4247 3.996C15.4407 3.924 15.4847 3.84 15.5567 3.744C15.6287 3.64 15.6687 3.56 15.6767 3.504C15.5967 3.504 15.4847 3.532 15.3407 3.588C15.1967 3.636 15.0487 3.7 14.8967 3.78C14.7447 3.852 14.6167 3.932 14.5127 4.02C14.4087 4.1 14.3607 4.172 14.3687 4.236C14.3767 4.276 14.4007 4.312 14.4407 4.344C14.4807 4.368 14.5167 4.388 14.5487 4.404V4.44C14.5407 4.44 14.5327 4.444 14.5247 4.452L14.5367 4.464C14.5287 4.464 14.5247 4.46 14.5247 4.452L14.5127 4.476C14.4567 4.468 14.3807 4.452 14.2847 4.428C14.1887 4.404 14.1007 4.368 14.0207 4.32C13.9407 4.272 13.9007 4.212 13.9007 4.14C13.9007 4.052 13.9647 3.964 14.0927 3.876C14.2207 3.78 14.3727 3.692 14.5487 3.612C14.7247 3.524 14.8927 3.452 15.0527 3.396C15.2207 3.332 15.3407 3.296 15.4127 3.288L15.6767 3.24L15.8807 3.216C15.9447 3.128 16.0087 3.04 16.0727 2.952C16.1447 2.856 16.2087 2.764 16.2647 2.676H16.2887L16.3007 2.664H16.3607L16.3727 2.652C16.4527 2.66 16.5487 2.716 16.6607 2.82C16.7727 2.916 16.8327 2.996 16.8407 3.06C16.8407 3.092 16.8287 3.12 16.8047 3.144C16.7807 3.168 16.7487 3.188 16.7087 3.204L16.6727 3.228C16.6327 3.252 16.6127 3.272 16.6127 3.288C16.6127 3.304 16.6247 3.316 16.6487 3.324C16.6727 3.332 16.6967 3.344 16.7207 3.36C16.7607 3.376 16.8007 3.396 16.8407 3.42C16.8807 3.436 16.9247 3.46 16.9727 3.492C17.0607 3.548 17.1447 3.624 17.2247 3.72C17.3127 3.808 17.3607 3.932 17.3687 4.092C17.3767 4.148 17.3727 4.204 17.3567 4.26C17.3487 4.316 17.3527 4.372 17.3687 4.428C17.4087 4.428 17.4607 4.424 17.5247 4.416C17.5887 4.408 17.6327 4.404 17.6567 4.404C17.7047 4.404 17.7807 4.42 17.8847 4.452C17.9887 4.476 18.0607 4.5 18.1007 4.524C18.1327 4.54 18.1567 4.564 18.1727 4.596C18.1967 4.62 18.2207 4.64 18.2447 4.656L18.2567 4.716L18.1847 4.728C18.1367 4.712 18.0887 4.696 18.0407 4.68C18.0007 4.664 17.9567 4.656 17.9087 4.656C17.8767 4.656 17.8407 4.66 17.8007 4.668C17.7687 4.676 17.7327 4.688 17.6927 4.704C17.5807 4.744 17.4767 4.82 17.3807 4.932C17.2927 5.044 17.2087 5.168 17.1287 5.304C17.0647 5.36 17.0127 5.432 16.9727 5.52C16.9327 5.6 16.8807 5.672 16.8167 5.736C16.7687 5.792 16.7167 5.852 16.6607 5.916C16.6047 5.972 16.5527 6.024 16.5047 6.072C16.4967 6.08 16.4887 6.088 16.4807 6.096C16.4727 6.104 16.4607 6.116 16.4447 6.132L16.3727 6.192C16.3487 6.216 16.3247 6.236 16.3007 6.252C16.2767 6.268 16.2607 6.284 16.2527 6.3C16.2127 6.348 16.1327 6.404 16.0127 6.468C15.8927 6.532 15.7607 6.548 15.6167 6.516C15.5207 6.5 15.4207 6.428 15.3167 6.3C15.2127 6.18 15.1607 6.08 15.1607 6C15.1607 5.816 15.2447 5.64 15.4127 5.472C15.5807 5.296 15.7727 5.14 15.9887 5.004C16.2047 4.868 16.3847 4.768 16.5287 4.704C16.5527 4.688 16.6167 4.66 16.7207 4.62C16.8327 4.572 16.8927 4.544 16.9007 4.536C16.9407 4.496 16.9647 4.44 16.9727 4.368C16.9887 4.296 16.9967 4.228 16.9967 4.164C16.9967 3.988 16.9727 3.84 16.9247 3.72C16.8847 3.6 16.7687 3.54 16.5767 3.54C16.4647 3.54 16.3567 3.576 16.2527 3.648C16.1807 3.696 16.0927 3.8 15.9887 3.96C15.8847 4.12 15.8047 4.24 15.7487 4.32C15.5087 4.664 15.3047 5.028 15.1367 5.412C14.9767 5.796 14.8167 6.18 14.6567 6.564C14.6407 6.628 14.6167 6.668 14.5847 6.684C14.5847 6.7 14.5647 6.76 14.5247 6.864C14.4927 6.968 14.4567 7.068 14.4167 7.164C14.3847 7.268 14.3607 7.332 14.3447 7.356L14.3327 7.38C14.3247 7.388 14.3207 7.4 14.3207 7.416C14.3127 7.472 14.3007 7.524 14.2847 7.572C14.2687 7.62 14.2527 7.672 14.2367 7.728C14.2047 7.864 14.1767 8.008 14.1527 8.16C14.1287 8.32 14.1207 8.468 14.1287 8.604C14.1367 8.644 14.1447 8.688 14.1527 8.736C14.1607 8.784 14.1767 8.828 14.2007 8.868C14.2167 8.9 14.2567 8.928 14.3207 8.952C14.3927 8.976 14.4287 9.004 14.4287 9.036C14.4287 9.068 14.4047 9.084 14.3567 9.084ZM15.6887 5.988C15.7287 5.964 15.7687 5.94 15.8087 5.916C15.8487 5.884 15.8847 5.852 15.9167 5.82L15.9887 5.76C16.1967 5.624 16.3407 5.496 16.4207 5.376C16.5007 5.256 16.6167 5.104 16.7687 4.92C16.8007 4.888 16.8087 4.86 16.7927 4.836C16.7447 4.876 16.6927 4.912 16.6367 4.944C16.5887 4.976 16.5327 5.008 16.4687 5.04C16.4127 5.072 16.3567 5.108 16.3007 5.148C16.2447 5.188 16.1927 5.228 16.1447 5.268C16.1207 5.276 16.0527 5.324 15.9407 5.412C15.8927 5.444 15.8447 5.484 15.7967 5.532C15.7487 5.572 15.7047 5.62 15.6647 5.676C15.5927 5.756 15.5567 5.84 15.5567 5.928C15.5567 6.024 15.6007 6.044 15.6887 5.988ZM19.0777 6.3C18.9977 6.3 18.9297 6.288 18.8737 6.264C18.8257 6.248 18.7817 6.232 18.7417 6.216C18.7177 6.2 18.6897 6.18 18.6577 6.156C18.6337 6.132 18.6057 6.12 18.5737 6.12C18.5657 6.104 18.5497 6.084 18.5257 6.06L18.4777 6.024C18.4057 5.968 18.3577 5.9 18.3337 5.82C18.3097 5.74 18.2977 5.648 18.2977 5.544C18.2977 5.408 18.3297 5.284 18.3937 5.172C18.4577 5.06 18.5097 4.94 18.5497 4.812C18.5657 4.772 18.5737 4.732 18.5737 4.692C18.5737 4.652 18.5777 4.612 18.5857 4.572C18.6017 4.516 18.6257 4.464 18.6577 4.416C18.6897 4.368 18.7217 4.32 18.7537 4.272C18.9377 3.952 19.1577 3.696 19.4137 3.504C19.6697 3.304 19.9777 3.136 20.3377 3C20.3777 2.984 20.4457 2.968 20.5417 2.952C20.6457 2.936 20.7177 2.928 20.7577 2.928C20.8217 2.928 20.8817 2.94 20.9377 2.964C20.9937 2.98 21.0497 2.996 21.1057 3.012C21.1217 3.02 21.1377 3.028 21.1537 3.036C21.1777 3.036 21.2057 3.036 21.2377 3.036L21.2137 3.072C21.2857 3.104 21.3417 3.148 21.3817 3.204C21.4297 3.26 21.4817 3.312 21.5377 3.36L21.6457 3.456C21.6777 3.488 21.6977 3.532 21.7057 3.588C21.7217 3.636 21.7297 3.676 21.7297 3.708C21.7457 3.82 21.7377 3.928 21.7057 4.032C21.6817 4.128 21.6497 4.22 21.6097 4.308C21.5617 4.388 21.5097 4.472 21.4537 4.56C21.3977 4.64 21.3377 4.72 21.2737 4.8C21.2177 4.88 21.1617 4.96 21.1057 5.04C21.0497 5.12 20.9857 5.196 20.9137 5.268C20.8977 5.284 20.8577 5.324 20.7937 5.388C20.7297 5.444 20.6657 5.504 20.6017 5.568C20.5457 5.632 20.5137 5.672 20.5057 5.688C20.4337 5.712 20.3737 5.748 20.3257 5.796L20.2537 5.868C20.1097 6.012 19.9257 6.12 19.7017 6.192C19.4777 6.264 19.2697 6.3 19.0777 6.3ZM19.1377 6.072C19.1457 6.064 19.1577 6.06 19.1737 6.06L19.2817 6.024C19.3217 6.008 19.3577 5.996 19.3897 5.988C19.4297 5.98 19.4537 5.972 19.4617 5.964C19.4937 5.948 19.5577 5.908 19.6537 5.844C19.7577 5.78 19.8537 5.712 19.9417 5.64C20.0297 5.568 20.0697 5.516 20.0617 5.484C20.1177 5.46 20.1857 5.396 20.2657 5.292C20.3537 5.188 20.4337 5.076 20.5057 4.956C20.5857 4.836 20.6377 4.752 20.6617 4.704C20.6777 4.664 20.6937 4.628 20.7097 4.596C20.7257 4.564 20.7497 4.532 20.7817 4.5C20.7817 4.46 20.7897 4.424 20.8057 4.392C20.8297 4.36 20.8417 4.332 20.8417 4.308C20.8577 4.292 20.8657 4.268 20.8657 4.236C20.8737 4.196 20.8817 4.168 20.8897 4.152C20.9057 4.088 20.9177 4.048 20.9257 4.032L20.9137 4.02C20.9217 4.004 20.9257 3.988 20.9257 3.972C20.9337 3.948 20.9417 3.932 20.9497 3.924V3.888C20.9497 3.848 20.9537 3.812 20.9617 3.78C20.9697 3.74 20.9697 3.7 20.9617 3.66C20.9777 3.628 20.9857 3.6 20.9857 3.576C20.9857 3.552 20.9817 3.528 20.9737 3.504C20.9737 3.48 20.9697 3.456 20.9617 3.432L20.9737 3.42C20.9657 3.348 20.9417 3.288 20.9017 3.24C20.8617 3.192 20.8097 3.168 20.7457 3.168C20.5457 3.168 20.3697 3.22 20.2177 3.324C20.0657 3.428 19.9177 3.544 19.7737 3.672C19.7177 3.712 19.6657 3.752 19.6177 3.792C19.5777 3.832 19.5377 3.88 19.4977 3.936C19.4977 3.944 19.4937 3.952 19.4857 3.96C19.5017 3.944 19.5257 3.932 19.5577 3.924C19.6297 3.868 19.7217 3.84 19.8337 3.84C19.8737 3.84 19.9537 3.876 20.0737 3.948C20.1937 4.02 20.2537 4.088 20.2537 4.152V4.212C20.1977 4.188 20.1657 4.172 20.1577 4.164L20.1097 4.14C20.0777 4.124 20.0417 4.116 20.0017 4.116C19.8737 4.116 19.7377 4.176 19.5937 4.296C19.4577 4.416 19.3457 4.532 19.2577 4.644C19.2017 4.708 19.1497 4.772 19.1017 4.836C19.0537 4.892 19.0337 4.972 19.0417 5.076C19.0817 5.1 19.1097 5.144 19.1257 5.208C19.1017 5.216 19.0777 5.22 19.0537 5.22C19.0137 5.22 18.9737 5.2 18.9337 5.16C18.9097 5.192 18.8897 5.236 18.8737 5.292C18.8577 5.348 18.8417 5.396 18.8257 5.436L18.8017 5.472C18.8017 5.504 18.7977 5.536 18.7897 5.568C18.7897 5.6 18.7937 5.632 18.8017 5.664C18.8097 5.784 18.8377 5.884 18.8857 5.964C18.9337 6.036 19.0177 6.072 19.1377 6.072ZM21.8493 6.66C21.8013 6.66 21.7613 6.64 21.7293 6.6C21.6893 6.568 21.6533 6.528 21.6213 6.48L21.5733 6.408C21.5573 6.392 21.5413 6.372 21.5253 6.348C21.5013 6.324 21.4733 6.312 21.4413 6.312C21.4413 6.272 21.4333 6.24 21.4173 6.216C21.4013 6.192 21.3933 6.16 21.3933 6.12C21.5613 5.888 21.7733 5.68 22.0293 5.496C22.2853 5.304 22.5453 5.14 22.8093 5.004H22.8453C22.8933 4.956 22.9533 4.916 23.0253 4.884C23.0973 4.852 23.1573 4.808 23.2053 4.752C23.0773 4.688 22.9493 4.636 22.8213 4.596C22.7013 4.548 22.5853 4.48 22.4733 4.392C22.3773 4.32 22.2853 4.232 22.1973 4.128C22.1093 4.016 22.0653 3.9 22.0653 3.78C22.0653 3.596 22.1133 3.416 22.2093 3.24C22.3133 3.056 22.4373 2.924 22.5813 2.844C22.6133 2.788 22.6933 2.728 22.8213 2.664C22.9493 2.6 23.0813 2.54 23.2173 2.484C23.3533 2.428 23.4533 2.388 23.5173 2.364C23.5733 2.324 23.6333 2.304 23.6973 2.304L23.8533 2.232H23.8653C23.9453 2.232 24.0373 2.228 24.1413 2.22C24.2453 2.212 24.3293 2.208 24.3933 2.208C24.4493 2.208 24.5253 2.232 24.6213 2.28C24.7173 2.328 24.8053 2.388 24.8853 2.46C24.9653 2.524 25.0053 2.588 25.0053 2.652C25.0133 2.692 24.9933 2.756 24.9453 2.844C24.9053 2.924 24.8573 3.004 24.8013 3.084C24.7533 3.156 24.7133 3.2 24.6813 3.216L24.6453 3.228H24.5973L24.5853 3.168C24.6253 3.128 24.6613 3.064 24.6933 2.976C24.7253 2.888 24.7413 2.812 24.7413 2.748C24.7413 2.628 24.6733 2.568 24.5373 2.568C24.4413 2.568 24.3453 2.584 24.2493 2.616C24.1613 2.64 24.0733 2.668 23.9853 2.7C23.6733 2.804 23.3973 2.932 23.1573 3.084C22.9173 3.228 22.7053 3.452 22.5213 3.756C22.4653 3.844 22.4373 3.924 22.4373 3.996C22.4373 4.116 22.5413 4.224 22.7493 4.32C22.7813 4.328 22.8493 4.364 22.9533 4.428C23.0653 4.484 23.1733 4.54 23.2773 4.596C23.3813 4.644 23.4333 4.668 23.4333 4.668C23.4733 4.668 23.5133 4.652 23.5533 4.62C23.5933 4.58 23.6293 4.552 23.6613 4.536C23.7973 4.472 23.9653 4.392 24.1653 4.296C24.3653 4.192 24.5373 4.132 24.6813 4.116C24.7053 4.108 24.7293 4.1 24.7533 4.092C24.7853 4.084 24.8173 4.076 24.8493 4.068C24.8893 4.068 24.9173 4.088 24.9333 4.128C24.9173 4.168 24.8813 4.196 24.8253 4.212C24.7853 4.244 24.7253 4.28 24.6453 4.32C24.5653 4.352 24.4973 4.38 24.4413 4.404C24.3853 4.42 24.3373 4.452 24.2973 4.5C24.2893 4.524 24.2653 4.548 24.2253 4.572C24.1693 4.612 24.0813 4.672 23.9613 4.752C23.8493 4.824 23.7973 4.904 23.8053 4.992C23.8053 5.016 23.8293 5.056 23.8773 5.112C23.9333 5.16 23.9653 5.204 23.9733 5.244C23.9813 5.308 23.9653 5.396 23.9253 5.508C23.8933 5.62 23.8493 5.704 23.7933 5.76L23.8053 5.808C23.7493 5.824 23.7133 5.848 23.6973 5.88C23.6813 5.904 23.6573 5.936 23.6253 5.976C23.6013 6.008 23.5733 6.032 23.5413 6.048C23.5093 6.072 23.4653 6.084 23.4093 6.084L23.3493 6.156H23.3373C23.2813 6.156 23.2333 6.176 23.1933 6.216C23.1533 6.264 23.1133 6.308 23.0733 6.348L23.0373 6.336C22.9973 6.336 22.9413 6.352 22.8693 6.384C22.8053 6.424 22.7533 6.452 22.7133 6.468C22.6573 6.492 22.5973 6.512 22.5333 6.528C22.4693 6.544 22.3973 6.552 22.3173 6.552C22.2933 6.552 22.2693 6.552 22.2453 6.552C22.2213 6.552 22.1973 6.548 22.1733 6.54C22.1653 6.548 22.1533 6.552 22.1373 6.552L22.1013 6.576C22.0533 6.592 22.0173 6.6 21.9933 6.6C21.9453 6.6 21.9213 6.584 21.9213 6.552C21.9293 6.528 21.9453 6.504 21.9693 6.48C21.9853 6.464 22.0213 6.444 22.0773 6.42C22.1333 6.404 22.1893 6.38 22.2453 6.348C22.3093 6.324 22.3653 6.296 22.4133 6.264C22.4693 6.24 22.5133 6.224 22.5453 6.216C22.5533 6.208 22.5613 6.2 22.5693 6.192C22.5773 6.184 22.5853 6.176 22.5933 6.168L22.6653 6.12C22.7773 6.048 22.8973 5.956 23.0253 5.844C23.1533 5.724 23.2613 5.596 23.3493 5.46C23.4453 5.324 23.4853 5.196 23.4693 5.076C23.4693 5.06 23.4653 5.032 23.4573 4.992C23.4493 4.952 23.4333 4.932 23.4093 4.932C23.3853 4.932 23.3573 4.948 23.3253 4.98C23.2933 5.012 23.2693 5.036 23.2533 5.052C23.1973 5.092 23.1333 5.132 23.0613 5.172C22.9973 5.212 22.9333 5.256 22.8693 5.304C22.7893 5.36 22.7173 5.424 22.6533 5.496C22.5893 5.56 22.5173 5.624 22.4373 5.688C22.3333 5.768 22.2333 5.852 22.1373 5.94C22.0493 6.02 21.9613 6.108 21.8733 6.204C21.8253 6.268 21.8013 6.34 21.8013 6.42C21.8093 6.452 21.8213 6.484 21.8373 6.516C21.8533 6.556 21.8653 6.596 21.8733 6.636L21.8613 6.66H21.8493ZM26.5093 3.084C26.4293 3.084 26.3333 3.076 26.2213 3.06C26.1093 3.036 26.0493 2.964 26.0413 2.844C26.0413 2.828 26.0693 2.788 26.1253 2.724C26.1893 2.66 26.2533 2.596 26.3173 2.532C26.3893 2.468 26.4333 2.428 26.4493 2.412C26.4733 2.396 26.5293 2.352 26.6173 2.28C26.7133 2.208 26.7773 2.196 26.8093 2.244C26.8173 2.252 26.8213 2.308 26.8213 2.412V2.58C26.8213 2.596 26.8133 2.612 26.7973 2.628C26.7893 2.628 26.7693 2.636 26.7373 2.652C26.7133 2.66 26.7013 2.668 26.7013 2.676L26.7133 2.688C26.7293 2.696 26.7413 2.712 26.7493 2.736C26.7653 2.76 26.7693 2.78 26.7613 2.796C26.7293 2.852 26.6893 2.916 26.6413 2.988C26.5933 3.052 26.5493 3.084 26.5093 3.084ZM25.3933 6.18C25.3613 6.18 25.2933 6.168 25.1893 6.144C25.0933 6.12 25.0293 6.1 24.9973 6.084C24.9173 6.028 24.8613 5.98 24.8293 5.94C24.7973 5.9 24.7813 5.816 24.7813 5.688C24.7813 5.456 24.8333 5.228 24.9373 5.004C25.0493 4.772 25.1493 4.552 25.2373 4.344C25.2533 4.328 25.2533 4.316 25.2373 4.308V4.284C25.2133 4.204 25.2333 4.112 25.2973 4.008C25.3613 3.896 25.4373 3.792 25.5253 3.696C25.6133 3.6 25.6813 3.536 25.7293 3.504C25.7693 3.504 25.8413 3.512 25.9453 3.528C26.0493 3.536 26.1493 3.552 26.2453 3.576C26.3413 3.6 26.3893 3.64 26.3893 3.696C26.3893 3.704 26.3773 3.724 26.3533 3.756C26.3293 3.788 26.3013 3.824 26.2693 3.864L26.1733 3.972C26.1413 4.004 26.1253 4.024 26.1253 4.032C26.0533 4.16 25.9573 4.316 25.8373 4.5C25.7173 4.684 25.6053 4.872 25.5013 5.064C25.4293 5.192 25.3693 5.316 25.3213 5.436C25.2813 5.548 25.2613 5.648 25.2613 5.736C25.2613 5.808 25.2773 5.86 25.3093 5.892C25.3973 5.876 25.4893 5.82 25.5853 5.724C25.6893 5.628 25.7733 5.54 25.8373 5.46H25.8973C25.8973 5.54 25.8693 5.608 25.8133 5.664L25.7773 5.7C25.7373 5.772 25.6853 5.872 25.6213 6C25.5653 6.12 25.4893 6.18 25.3933 6.18ZM26.7559 9.36C26.5879 9.36 26.4319 9.312 26.2879 9.216C26.1359 9.12 25.9959 9.02 25.8679 8.916C25.8119 8.868 25.7719 8.8 25.7479 8.712C25.7159 8.624 25.6959 8.552 25.6879 8.496C25.6799 8.456 25.6719 8.412 25.6639 8.364C25.6559 8.316 25.6479 8.268 25.6399 8.22C25.6399 8.204 25.6399 8.184 25.6399 8.16C25.6319 8.144 25.6279 8.124 25.6279 8.1C25.6279 8.028 25.6399 7.956 25.6639 7.884L25.6759 7.836C25.6919 7.788 25.6999 7.76 25.6999 7.752C25.6999 7.736 25.6959 7.72 25.6879 7.704C25.6799 7.688 25.6719 7.664 25.6639 7.632C25.6879 7.6 25.7039 7.56 25.7119 7.512C25.7199 7.472 25.7279 7.436 25.7359 7.404C25.7519 7.348 25.7639 7.292 25.7719 7.236C25.7719 7.188 25.7759 7.136 25.7839 7.08C25.7999 7.024 25.8239 6.968 25.8559 6.912C25.8799 6.864 25.8959 6.812 25.9039 6.756C25.9119 6.716 25.9199 6.676 25.9279 6.636C25.9279 6.604 25.9319 6.572 25.9399 6.54C25.9879 6.428 26.0239 6.324 26.0479 6.228C26.0639 6.132 26.0919 6.028 26.1319 5.916L26.0959 5.88C26.0159 5.824 25.9759 5.74 25.9759 5.628C25.9759 5.516 26.0399 5.432 26.1679 5.376C26.2879 5.32 26.3879 5.276 26.4679 5.244C26.5399 5.22 26.5879 5.196 26.6119 5.172C26.6199 5.172 26.6399 5.12 26.6719 5.016C26.7039 4.904 26.7199 4.836 26.7199 4.812C26.7439 4.812 26.7599 4.796 26.7679 4.764C26.7839 4.724 26.7919 4.68 26.7919 4.632C26.7999 4.584 26.8159 4.548 26.8399 4.524L26.8279 4.464L26.8519 4.452L26.8399 4.404C26.9279 4.372 26.9799 4.3 26.9959 4.188C27.0199 4.068 27.0559 3.976 27.1039 3.912C27.1279 3.88 27.1519 3.852 27.1759 3.828C27.1999 3.804 27.2199 3.776 27.2359 3.744C27.2519 3.712 27.2599 3.692 27.2599 3.684L27.2719 3.648C27.2879 3.608 27.3119 3.568 27.3439 3.528C27.3839 3.48 27.4159 3.44 27.4399 3.408V3.396L27.4519 3.372C27.4839 3.34 27.5039 3.316 27.5119 3.3C27.5199 3.284 27.5319 3.268 27.5479 3.252V3.228L27.5719 3.204L27.6079 3.18V3.156L27.6319 3.144V3.12L27.6679 3.048C27.6839 3.04 27.6919 3.028 27.6919 3.012L27.7279 2.988H27.7399C27.7479 2.98 27.7519 2.964 27.7519 2.94H27.7639L27.8119 2.916C27.8199 2.908 27.8359 2.896 27.8599 2.88V2.832L27.9199 2.808L27.9319 2.796V2.76L27.9679 2.736C27.9759 2.728 27.9879 2.716 28.0039 2.7C28.0199 2.684 28.0239 2.672 28.0159 2.664C28.0239 2.648 28.0679 2.596 28.1479 2.508C28.2359 2.42 28.3279 2.328 28.4239 2.232C28.5199 2.136 28.5799 2.076 28.6039 2.052C28.6199 2.012 28.6399 1.98 28.6639 1.956C28.6879 1.932 28.7159 1.912 28.7479 1.896L28.7719 1.872L28.7599 1.86C28.7999 1.844 28.8279 1.828 28.8439 1.812C28.8599 1.796 28.8839 1.772 28.9159 1.74C28.9639 1.676 29.0039 1.64 29.0359 1.632C29.0599 1.592 29.0999 1.568 29.1559 1.56C29.2119 1.544 29.2719 1.536 29.3359 1.536C29.4639 1.536 29.5679 1.552 29.6479 1.584C29.7759 1.592 29.8919 1.636 29.9959 1.716C30.0999 1.796 30.1679 1.9 30.1999 2.028L30.0919 2.076C30.0679 2.012 30.0359 1.98 29.9959 1.98H29.9239C29.9159 1.972 29.9039 1.968 29.8879 1.968C29.7919 1.968 29.6839 2.012 29.5639 2.1C29.4439 2.18 29.3279 2.268 29.2159 2.364C29.1039 2.46 28.9959 2.532 28.8919 2.58C28.8119 2.684 28.7119 2.768 28.5919 2.832C28.5759 2.84 28.5279 2.892 28.4479 2.988C28.3679 3.084 28.2879 3.184 28.2079 3.288C28.1279 3.384 28.0799 3.448 28.0639 3.48C28.0719 3.488 28.0719 3.504 28.0639 3.528L28.0279 3.54C27.9959 3.596 27.9599 3.648 27.9199 3.696C27.8879 3.744 27.8479 3.788 27.7999 3.828C27.7999 3.828 27.8079 3.844 27.8239 3.876C27.7919 3.876 27.7719 3.88 27.7639 3.888C27.7559 3.888 27.7519 3.888 27.7519 3.888C27.7199 3.912 27.6879 3.948 27.6559 3.996C27.6319 4.036 27.6119 4.076 27.5959 4.116C27.5639 4.156 27.5359 4.196 27.5119 4.236C27.4879 4.276 27.4599 4.308 27.4279 4.332L27.4399 4.368C27.3599 4.424 27.2999 4.496 27.2599 4.584C27.2199 4.672 27.1919 4.76 27.1759 4.848C27.1759 4.864 27.1679 4.88 27.1519 4.896L27.1159 4.944C27.0999 4.96 27.0879 4.984 27.0799 5.016C27.0719 5.04 27.0879 5.052 27.1279 5.052C27.1439 5.052 27.1599 5.052 27.1759 5.052C27.1919 5.044 27.2079 5.04 27.2239 5.04L27.2599 4.992C27.2759 5.008 27.2919 5.016 27.3079 5.016C27.3719 5.016 27.4439 5 27.5239 4.968H27.5719C27.6279 4.968 27.6799 4.964 27.7279 4.956C27.7759 4.948 27.8279 4.944 27.8839 4.944C27.9319 4.928 27.9799 4.912 28.0279 4.896C28.0759 4.872 28.1239 4.856 28.1719 4.848C28.2039 4.84 28.2759 4.824 28.3879 4.8C28.5079 4.768 28.5759 4.744 28.5919 4.728C28.6559 4.72 28.7199 4.708 28.7839 4.692C28.8559 4.676 28.9199 4.664 28.9759 4.656C29.0079 4.656 29.0359 4.656 29.0599 4.656C29.0839 4.656 29.1119 4.652 29.1439 4.644C29.1599 4.644 29.1759 4.64 29.1919 4.632C29.2079 4.624 29.2239 4.62 29.2399 4.62V4.608C29.2959 4.608 29.3439 4.608 29.3839 4.608C29.4239 4.6 29.4599 4.596 29.4919 4.596L29.5159 4.572H29.5399C29.5559 4.572 29.5799 4.584 29.6119 4.608C29.6519 4.624 29.6719 4.652 29.6719 4.692H29.6359C29.6039 4.7 29.5639 4.708 29.5159 4.716C29.4759 4.724 29.4359 4.732 29.3959 4.74C29.3559 4.748 29.3159 4.756 29.2759 4.764C29.2439 4.772 29.2319 4.796 29.2399 4.836L29.1559 4.824C29.1159 4.88 29.0559 4.908 28.9759 4.908C28.9439 4.932 28.9119 4.952 28.8799 4.968C28.8479 4.984 28.8159 5 28.7839 5.016C28.6959 5.064 28.6559 5.104 28.6639 5.136C28.6639 5.16 28.6879 5.192 28.7359 5.232C28.7839 5.264 28.8159 5.288 28.8319 5.304C28.9279 5.4 29.0319 5.516 29.1439 5.652C29.2639 5.788 29.3319 5.928 29.3479 6.072C29.3479 6.136 29.3399 6.196 29.3239 6.252C29.3159 6.316 29.3079 6.38 29.2999 6.444V6.492C29.2999 6.524 29.2999 6.556 29.2999 6.588C29.3079 6.62 29.3159 6.656 29.3239 6.696H29.2879C29.2559 6.728 29.2239 6.78 29.1919 6.852C29.1679 6.924 29.1599 6.988 29.1679 7.044H29.1439C29.0959 7.092 29.0799 7.172 29.0959 7.284H29.0599V7.32L29.0119 7.344C28.9959 7.392 28.9759 7.428 28.9519 7.452C28.9519 7.484 28.9399 7.524 28.9159 7.572C28.8919 7.62 28.8599 7.652 28.8199 7.668C28.8119 7.7 28.7959 7.74 28.7719 7.788C28.7559 7.836 28.7319 7.868 28.6999 7.884C28.6919 7.892 28.6839 7.9 28.6759 7.908C28.6759 7.924 28.6719 7.94 28.6639 7.956L28.6039 8.064C28.5639 8.128 28.5359 8.196 28.5199 8.268L28.3879 8.28C28.3719 8.296 28.3639 8.308 28.3639 8.316L28.3759 8.34C28.3839 8.372 28.3759 8.408 28.3519 8.448C28.3039 8.488 28.2639 8.536 28.2319 8.592C28.1999 8.648 28.1639 8.7 28.1239 8.748C28.0999 8.772 28.0719 8.792 28.0399 8.808L28.0039 8.832C27.9879 8.848 27.9759 8.856 27.9679 8.856C27.8239 8.984 27.6439 9.1 27.4279 9.204C27.2119 9.308 26.9879 9.36 26.7559 9.36ZM26.7679 9.048C26.8079 9.048 26.8439 9.044 26.8759 9.036C26.9159 9.036 26.9559 9.036 26.9959 9.036C27.1159 8.988 27.1959 8.948 27.2359 8.916C27.2519 8.908 27.2759 8.888 27.3079 8.856C27.3239 8.84 27.3399 8.824 27.3559 8.808C27.3719 8.792 27.3959 8.772 27.4279 8.748L27.4519 8.688C27.5159 8.632 27.5639 8.576 27.5959 8.52C27.6359 8.472 27.6799 8.42 27.7279 8.364C27.7519 8.34 27.7719 8.316 27.7879 8.292C27.8119 8.276 27.8279 8.252 27.8359 8.22C27.8599 8.188 27.8759 8.156 27.8839 8.124C27.9159 8.084 27.9439 8.044 27.9679 8.004C27.9999 7.972 28.0279 7.936 28.0519 7.896C28.1399 7.76 28.2119 7.62 28.2679 7.476C28.3319 7.332 28.4039 7.192 28.4839 7.056V7.008C28.4839 6.984 28.4839 6.964 28.4839 6.948C28.4919 6.932 28.4999 6.916 28.5079 6.9L28.5439 6.84C28.5759 6.792 28.6039 6.716 28.6279 6.612C28.6599 6.508 28.6839 6.4 28.6999 6.288C28.7239 6.184 28.7399 6.104 28.7479 6.048C28.7479 6.032 28.7519 6.012 28.7599 5.988C28.7679 5.956 28.7759 5.936 28.7839 5.928V5.892C28.7999 5.876 28.7999 5.864 28.7839 5.856L28.6879 5.544C28.6559 5.448 28.5879 5.36 28.4839 5.28C28.3799 5.192 28.2799 5.144 28.1839 5.136L27.7759 5.28C27.7439 5.296 27.7119 5.312 27.6799 5.328C27.6479 5.344 27.6119 5.36 27.5719 5.376C27.5319 5.392 27.4839 5.408 27.4279 5.424C27.3799 5.432 27.3359 5.444 27.2959 5.46C27.2639 5.468 27.2359 5.484 27.2119 5.508C27.1879 5.524 27.1639 5.54 27.1399 5.556C27.0359 5.604 26.9519 5.648 26.8879 5.688C26.8239 5.728 26.7839 5.78 26.7679 5.844C26.7519 5.892 26.7439 5.944 26.7439 6C26.7439 6.016 26.7439 6.036 26.7439 6.06C26.7519 6.084 26.7479 6.108 26.7319 6.132C26.6999 6.22 26.6599 6.308 26.6119 6.396C26.5719 6.484 26.5399 6.572 26.5159 6.66C26.4919 6.732 26.4759 6.784 26.4679 6.816C26.4599 6.856 26.4519 6.916 26.4439 6.996L26.3959 7.14C26.3479 7.26 26.3159 7.388 26.2999 7.524C26.2759 7.668 26.2639 7.808 26.2639 7.944C26.2639 7.984 26.2639 8.028 26.2639 8.076C26.2639 8.124 26.2679 8.168 26.2759 8.208C26.2839 8.296 26.3039 8.404 26.3359 8.532C26.3679 8.668 26.4199 8.788 26.4919 8.892C26.5639 8.996 26.6559 9.048 26.7679 9.048ZM29.1438 9.672C28.9438 9.672 28.8038 9.604 28.7238 9.468C28.6438 9.34 28.6038 9.2 28.6038 9.048C28.6038 8.888 28.6318 8.732 28.6878 8.58C28.7438 8.428 28.8118 8.288 28.8918 8.16C28.9558 8.048 29.0238 7.932 29.0958 7.812C29.1598 7.692 29.2318 7.58 29.3118 7.476C29.5038 7.212 29.7518 6.936 30.0558 6.648C30.3678 6.368 30.6598 6.136 30.9318 5.952C31.0678 5.864 31.2318 5.772 31.4238 5.676C31.6238 5.572 31.7998 5.488 31.9518 5.424C32.1038 5.352 32.1798 5.316 32.1798 5.316C32.2518 5.292 32.3238 5.256 32.3958 5.208C32.4758 5.168 32.5358 5.148 32.5758 5.148C32.5838 5.14 32.5918 5.132 32.5998 5.124C32.6078 5.116 32.6158 5.108 32.6238 5.1C32.6798 5.036 32.7158 4.94 32.7318 4.812C32.7478 4.684 32.7718 4.58 32.8038 4.5C32.8198 4.46 32.8318 4.432 32.8398 4.416C32.8558 4.392 32.8638 4.356 32.8638 4.308V4.236C32.8638 4.196 32.8678 4.16 32.8758 4.128C32.8838 4.096 32.8918 4.064 32.8998 4.032C32.9078 4.008 32.9118 3.956 32.9118 3.876C32.8558 3.892 32.8078 3.924 32.7678 3.972C32.7358 4.02 32.6998 4.064 32.6598 4.104C32.5878 4.168 32.5198 4.24 32.4558 4.32C32.3998 4.4 32.3358 4.472 32.2638 4.536C32.1518 4.64 31.9998 4.784 31.8078 4.968C31.6158 5.152 31.4158 5.316 31.2078 5.46C30.9998 5.604 30.8158 5.676 30.6558 5.676C30.5518 5.676 30.4358 5.636 30.3078 5.556C30.1798 5.476 30.0918 5.396 30.0438 5.316V5.292C30.0438 5.268 30.0398 5.244 30.0318 5.22C30.0238 5.188 30.0198 5.16 30.0198 5.136C30.0198 4.984 30.0558 4.816 30.1278 4.632C30.1998 4.448 30.2838 4.276 30.3798 4.116C30.4758 3.956 30.5638 3.84 30.6438 3.768L30.6798 3.72C30.7118 3.68 30.7398 3.644 30.7638 3.612C30.7958 3.58 30.8278 3.548 30.8598 3.516C30.9238 3.444 30.9878 3.384 31.0518 3.336C31.1238 3.288 31.2038 3.264 31.2918 3.264C31.3238 3.264 31.3918 3.284 31.4958 3.324C31.5998 3.364 31.6998 3.408 31.7958 3.456C31.8918 3.496 31.9398 3.532 31.9398 3.564C31.9478 3.596 31.9318 3.612 31.8918 3.612H31.8558L31.8318 3.6C31.8238 3.6 31.8158 3.6 31.8078 3.6C31.7998 3.592 31.7878 3.588 31.7718 3.588C31.6918 3.588 31.5798 3.656 31.4358 3.792C31.2998 3.92 31.1598 4.084 31.0158 4.284C30.8718 4.476 30.7518 4.664 30.6558 4.848C30.5598 5.024 30.5118 5.16 30.5118 5.256C30.5118 5.296 30.5278 5.316 30.5598 5.316C30.6398 5.316 30.7238 5.288 30.8118 5.232C30.9078 5.176 30.9878 5.128 31.0518 5.088H31.0758C31.4358 4.824 31.7558 4.564 32.0358 4.308C32.1878 4.172 32.3398 4.036 32.4918 3.9C32.6438 3.764 32.7958 3.62 32.9478 3.468L33.0198 3.396L33.0918 3.312C33.1398 3.256 33.1958 3.204 33.2598 3.156C33.3318 3.172 33.4358 3.196 33.5718 3.228C33.7158 3.26 33.7918 3.332 33.7998 3.444C33.7998 3.484 33.7918 3.524 33.7758 3.564C33.7678 3.596 33.7598 3.632 33.7518 3.672C33.7438 3.752 33.7318 3.832 33.7158 3.912C33.6998 3.992 33.6838 4.072 33.6678 4.152C33.6598 4.2 33.6438 4.248 33.6198 4.296C33.6038 4.344 33.5878 4.392 33.5718 4.44C33.5558 4.496 33.5438 4.556 33.5358 4.62C33.5358 4.684 33.5238 4.748 33.4998 4.812C33.4918 4.836 33.4718 4.88 33.4398 4.944C33.4078 5 33.3918 5.04 33.3918 5.064C33.3918 5.072 33.4078 5.076 33.4398 5.076C33.4638 5.076 33.4838 5.076 33.4998 5.076C33.5238 5.068 33.5398 5.064 33.5478 5.064C33.7398 5.064 33.9118 5.128 34.0638 5.256C34.0798 5.264 34.0878 5.272 34.0878 5.28C34.0958 5.28 34.1038 5.28 34.1118 5.28V5.304C34.1118 5.344 34.0878 5.376 34.0398 5.4C33.9918 5.424 33.9598 5.408 33.9438 5.352C33.9358 5.328 33.9158 5.316 33.8838 5.316C33.8518 5.308 33.8238 5.304 33.7998 5.304C33.7198 5.304 33.6078 5.332 33.4638 5.388C33.3278 5.436 33.2638 5.508 33.2718 5.604C33.2318 5.628 33.1718 5.696 33.0918 5.808C33.0198 5.92 32.9798 5.996 32.9718 6.036C32.9638 6.068 32.9598 6.1 32.9598 6.132C32.9598 6.164 32.9438 6.196 32.9118 6.228C32.8798 6.26 32.8518 6.292 32.8278 6.324C32.8118 6.356 32.8038 6.404 32.8038 6.468C32.7558 6.484 32.7038 6.528 32.6478 6.6C32.5918 6.672 32.5678 6.732 32.5758 6.78L32.5398 6.792L32.5638 6.84C32.4998 6.864 32.4678 6.896 32.4678 6.936C32.4198 6.952 32.3798 6.992 32.3478 7.056C32.3238 7.12 32.2878 7.168 32.2398 7.2V7.248L32.1438 7.296L32.1558 7.332C32.1238 7.356 32.0918 7.38 32.0598 7.404C32.0358 7.436 32.0118 7.468 31.9878 7.5C31.9558 7.532 31.9278 7.56 31.9038 7.584C31.8878 7.608 31.8718 7.628 31.8558 7.644V7.692C31.8318 7.7 31.8198 7.72 31.8198 7.752C31.7798 7.76 31.7438 7.78 31.7118 7.812L31.6518 7.872L31.6638 7.896C31.6398 7.912 31.6158 7.928 31.5918 7.944C31.5758 7.96 31.5638 7.984 31.5558 8.016H31.5198C31.4958 8.064 31.4558 8.112 31.3998 8.16C31.3518 8.216 31.3078 8.264 31.2678 8.304L31.0638 8.556C30.9998 8.612 30.9278 8.664 30.8478 8.712C30.7758 8.76 30.7078 8.816 30.6438 8.88C30.6198 8.896 30.5958 8.916 30.5718 8.94C30.5558 8.964 30.5358 8.988 30.5118 9.012C30.4798 9.044 30.4358 9.072 30.3798 9.096C30.3318 9.128 30.2878 9.164 30.2478 9.204C30.1198 9.292 29.9518 9.392 29.7438 9.504C29.5278 9.616 29.3278 9.672 29.1438 9.672ZM29.4438 9.3C29.4838 9.284 29.5438 9.256 29.6238 9.216C29.7038 9.184 29.7758 9.148 29.8398 9.108C29.9118 9.068 29.9478 9.036 29.9478 9.012C30.0518 8.948 30.1438 8.872 30.2238 8.784C30.3118 8.704 30.3958 8.624 30.4758 8.544C30.5638 8.464 30.6518 8.384 30.7398 8.304C30.8278 8.224 30.9078 8.14 30.9798 8.052C31.0278 7.988 31.0718 7.924 31.1118 7.86C31.1598 7.796 31.2078 7.736 31.2558 7.68C31.3198 7.592 31.3878 7.504 31.4598 7.416C31.5398 7.336 31.6118 7.252 31.6758 7.164C31.7478 7.076 31.8118 6.98 31.8678 6.876C31.9318 6.772 31.9958 6.672 32.0598 6.576C32.0998 6.512 32.1438 6.444 32.1918 6.372C32.2478 6.3 32.2918 6.228 32.3238 6.156C32.3398 6.132 32.3518 6.104 32.3598 6.072C32.3758 6.048 32.3918 6.02 32.4078 5.988C32.4398 5.932 32.4838 5.848 32.5398 5.736C32.6038 5.616 32.6358 5.528 32.6358 5.472C32.5398 5.52 32.4278 5.568 32.2998 5.616C32.2358 5.648 32.1718 5.68 32.1078 5.712C32.0518 5.736 32.0238 5.756 32.0238 5.772C31.9838 5.78 31.8878 5.82 31.7358 5.892C31.5918 5.964 31.4478 6.04 31.3038 6.12C31.1598 6.2 31.0678 6.26 31.0278 6.3C30.8758 6.412 30.7278 6.532 30.5838 6.66C30.4478 6.788 30.3118 6.916 30.1758 7.044C30.1438 7.076 30.1158 7.108 30.0918 7.14C30.0678 7.172 30.0438 7.208 30.0198 7.248C30.0118 7.264 29.9998 7.276 29.9838 7.284C29.9758 7.3 29.9678 7.316 29.9598 7.332C29.9438 7.348 29.9118 7.392 29.8638 7.464C29.8158 7.536 29.7718 7.608 29.7318 7.68C29.6918 7.752 29.6678 7.8 29.6598 7.824C29.5878 7.896 29.5038 8.016 29.4078 8.184C29.3118 8.352 29.2438 8.488 29.2038 8.592L29.1198 8.784C29.0958 8.816 29.0838 8.872 29.0838 8.952C29.0758 9.032 29.0718 9.096 29.0718 9.144C29.0798 9.216 29.1078 9.26 29.1558 9.276C29.2038 9.3 29.2998 9.308 29.4438 9.3Z" fill="white"/>
</svg>
